<svg width="30" height="31" viewBox="0 0 30 31" fill="none" xmlns="http://www.w3.org/2000/svg">
<path fill-rule="evenodd" clip-rule="evenodd" d="M0 5.1875C0 2.59867 2.09867 0.5 4.6875 0.5H25.3125C27.9013 0.5 30 2.59867 30 5.1875V25.8125C30 28.4013 27.9013 30.5 25.3125 30.5H4.6875C2.09867 30.5 0 28.4013 0 25.8125V5.1875ZM15 8C19.125 8 22.5 11.375 22.5 15.5C22.5 19.25 19.7812 22.4375 16.0312 23V17.6562H17.8125L18.1875 15.5H16.125V14.0938C16.125 13.5312 16.4062 12.9688 17.3438 12.9688H18.2812V11.0938C18.2812 11.0938 17.4375 10.9062 16.5938 10.9062C14.9062 10.9062 13.7812 11.9375 13.7812 13.8125V15.5H11.9062V17.6562H13.7812V22.9062C10.2188 22.3438 7.5 19.25 7.5 15.5C7.5 11.375 10.875 8 15 8Z" fill="#FFFBFE"/>
</svg>
