<svg width="119" height="79" viewBox="0 0 119 79" fill="none" xmlns="http://www.w3.org/2000/svg">
<g id="Group 427319360">
<path id="Vector" d="M0 0.324219C9.95668 17.4527 19.9134 34.5812 29.8701 51.7098C33.3621 50.0571 37.2014 49.2588 41.0673 49.3815V29.722C39.1602 29.7791 36.2554 29.5805 33.1357 28.1809C27.9164 25.8338 25.4797 21.6418 24.71 20.2776C23.5668 18.2419 22.8016 16.0184 22.4508 13.7134L0 0.324219Z" fill="#045C7D"/>
<path id="Vector_2" d="M82.1358 0.324219L52.2657 51.7098C48.7735 50.057 44.934 49.2587 41.0679 49.3815V29.722C42.9755 29.7791 45.8804 29.5805 49.0001 28.1809C54.2193 25.8338 56.6595 21.6418 57.4263 20.2776C58.5692 18.2418 59.3345 16.0184 59.6855 13.7134L82.1358 0.324219Z" fill="#45BBD8"/>
<path id="Vector_3" d="M33.3291 60.3014L41.0677 78.9819V58.6318C38.4058 58.702 35.7807 59.2684 33.3291 60.3014Z" fill="#045C7D"/>
<path id="Vector_4" d="M48.8071 60.3014L41.0679 78.9819V58.6318C43.7301 58.7019 46.3553 59.2683 48.8071 60.3014Z" fill="#45BBD8"/>
<path id="Vector_5" d="M51.6929 17.7849H47.6673C48.2207 16.1595 48.5371 14.4638 48.6071 12.7493H53.1841C53.0671 14.517 52.557 16.2368 51.6906 17.7849H51.6929ZM41.0661 23.8965C39.3503 22.8822 37.9274 21.3096 36.9044 19.3872H45.2301C44.2064 21.3102 42.7836 22.8827 41.0678 23.8965H41.0661ZM36.1771 17.7849C35.5667 16.1713 35.2177 14.4716 35.1432 12.7493H46.9935C46.919 14.4716 46.57 16.1713 45.9596 17.7849H36.1771ZM28.952 12.7493H33.5285C33.5986 14.4639 33.9153 16.1596 34.4688 17.7849H30.4427C29.577 16.2366 29.0679 14.5168 28.952 12.7493ZM30.4427 6.11154H34.4688C33.9152 7.73709 33.5986 9.43299 33.5285 11.1477H28.952C29.0679 9.38007 29.577 7.66002 30.4427 6.11154ZM41.0695 0C42.7853 1.01431 44.2082 2.58686 45.2318 4.50931H36.9061C37.9291 2.58629 39.352 1.01374 41.0678 0H41.0695ZM45.9601 6.11154C46.5709 7.7253 46.9199 9.42517 46.9941 11.1477H35.142C35.2163 9.42517 35.5653 7.7253 36.176 6.11154H45.9601ZM53.1858 11.1477H48.6071C48.5372 9.43302 48.2207 7.73712 47.6673 6.11154H51.6929C52.5593 7.6599 53.0694 9.3799 53.1864 11.1477H53.1858ZM47.0205 4.50988C46.2554 2.86826 45.2364 1.41215 44.0129 0.242589C46.632 0.89737 48.9575 2.3992 50.6233 4.51159L47.0205 4.50988ZM38.1233 0.242589C36.8992 1.41387 35.8802 2.86826 35.1139 4.51159H31.5111C33.1774 2.39895 35.5036 0.897104 38.1233 0.242589ZM35.1139 19.3866C35.8802 21.0311 36.8992 22.4843 38.1233 23.6556C35.5036 23.0011 33.1774 21.4992 31.5111 19.3866H35.1139ZM44.0129 23.6556C45.2364 22.4843 46.2531 21.0299 47.0217 19.3866H50.6233C48.9575 21.499 46.632 23.0008 44.0129 23.6556Z" fill="#45BBD8"/>
<g id="Group 427319364">
<path id="Vector_6" d="M76.8117 50.2571H80.0503L74.1199 65.9415H71.7786L65.8477 50.256H69.0868L72.9498 61.4533L76.8117 50.2571Z" fill="#45BBD8"/>
<path id="Vector_7" d="M83.0942 43.9703H86.1961V47.0526H83.0942V43.9703ZM83.0942 50.2571H86.1961V65.9415H83.0942V50.2571Z" fill="#45BBD8"/>
<path id="Vector_8" d="M93.5927 65.3706C92.591 64.8537 91.7754 64.0406 91.2588 63.0434C90.7227 62.0263 90.4546 60.7971 90.4546 59.3561V56.7721C90.4546 55.3519 90.7227 54.138 91.2588 53.1304C91.7779 52.1407 92.5934 51.3356 93.5927 50.826C94.6117 50.2971 95.841 50.0326 97.2805 50.0326C98.0634 50.0277 98.8435 50.1268 99.6 50.3272C100.292 50.5101 100.951 50.7989 101.553 51.1834C102.116 51.5424 102.607 52.0039 102.998 52.5436L100.762 54.538C100.329 54.0441 99.7949 53.6476 99.1956 53.3747C98.6094 53.1051 97.9712 52.9658 97.3253 52.9665C96.1289 52.9665 95.2013 53.2989 94.5422 53.9637C93.8831 54.6285 93.5536 55.5654 93.5536 56.7743V59.3583C93.5536 60.5977 93.8806 61.555 94.5347 62.23C95.1888 62.9051 96.119 63.2424 97.3253 63.2421C97.9795 63.2433 98.6251 63.0934 99.2111 62.8043C99.813 62.5087 100.342 62.0857 100.762 61.565L102.998 63.7107C102.596 64.2402 102.101 64.6933 101.538 65.0481C100.934 65.4267 100.275 65.7096 99.5845 65.8866C98.8322 66.0807 98.0577 66.1767 97.2805 66.172C95.841 66.1704 94.6117 65.9033 93.5927 65.3706Z" fill="#45BBD8"/>
<path id="Vector_9" d="M107.106 64.9712C106.143 64.1721 105.661 62.9555 105.661 61.3215C105.661 59.7701 106.102 58.6066 106.982 57.8311C107.863 57.0555 109.196 56.6676 110.982 56.6672H115.468L115.681 59.1456H110.997C110.186 59.1456 109.58 59.3245 109.18 59.6822C108.78 60.0399 108.58 60.5852 108.58 61.3181C108.58 62.1141 108.847 62.704 109.379 63.0875C109.911 63.4711 110.72 63.6625 111.804 63.6618C112.991 63.6618 113.876 63.5358 114.458 63.2839C115.04 63.032 115.332 62.6391 115.333 62.1052L115.652 64.3113C115.389 64.7231 115.045 65.0778 114.641 65.3542C114.216 65.6367 113.745 65.8438 113.249 65.9661C112.667 66.1085 112.068 66.1769 111.469 66.1698C109.522 66.1698 108.068 65.7703 107.106 64.9712ZM115.333 56.0022C115.333 54.9748 115.057 54.1757 114.504 53.6049C113.952 53.0341 113.168 52.7487 112.154 52.7487C111.527 52.748 110.904 52.8443 110.307 53.0341C109.732 53.211 109.19 53.481 108.703 53.8332L106.437 52.292C107.035 51.5766 107.823 51.0201 108.802 50.6224C109.78 50.2248 110.867 50.0258 112.064 50.0254C113.371 50.0254 114.491 50.2537 115.424 50.7103C116.357 51.167 117.067 51.8329 117.553 52.7081C118.04 53.5796 118.284 54.6298 118.284 55.8589V65.9415H115.333V56.0022Z" fill="#45BBD8"/>
<path id="Vector_10" d="M69.5006 73.0262H70.075L71.2928 77.6552L72.3434 73.0262H73.2097L71.7587 78.9303H70.9091L69.8137 74.8048L68.6694 78.9303H67.8147L66.3643 73.0262H67.2305L68.2805 77.6552L69.5006 73.0262Z" fill="#45BBD8"/>
<path id="Vector_11" d="M74.3478 78.7717C74.0731 78.629 73.8507 78.4036 73.7125 78.1279C73.5666 77.8451 73.4937 77.5027 73.4937 77.1005V76.6256C73.4937 76.207 73.5637 75.851 73.7039 75.5577C73.8324 75.2754 74.0459 75.0399 74.3151 74.8836C74.5831 74.7314 74.9046 74.6541 75.2795 74.6519C75.6023 74.6428 75.9198 74.7353 76.1866 74.9161C76.4498 75.1084 76.6497 75.374 76.761 75.6792C76.8931 76.0126 76.9592 76.4121 76.9592 76.8779V77.1541H74.0985V76.4897H76.1664C76.1416 76.1473 76.0523 75.8809 75.8988 75.6907C75.8254 75.5981 75.7311 75.524 75.6235 75.4744C75.5159 75.4248 75.3981 75.4011 75.2795 75.4053C74.9636 75.4053 74.7191 75.5082 74.546 75.7141C74.3729 75.9199 74.2864 76.211 74.2864 76.5873V77.1233C74.2864 77.4722 74.379 77.7401 74.5644 77.9269C74.7497 78.1138 75.0126 78.2072 75.3531 78.2072C75.5265 78.2047 75.6977 78.168 75.8568 78.0993C76.0218 78.0325 76.1727 77.9357 76.302 77.8139L76.85 78.3585C76.6451 78.5553 76.4054 78.7128 76.1429 78.8231C75.8938 78.9301 75.6256 78.986 75.3542 78.9874C74.9617 78.9897 74.6262 78.9178 74.3478 78.7717Z" fill="#45BBD8"/>
<path id="Vector_12" d="M78.1035 73.0262H78.937V78.9303H78.1035V73.0262ZM79.3127 78.8019C79.1151 78.674 78.9634 78.4872 78.8796 78.2682L78.937 77.387C78.9323 77.5468 78.966 77.7055 79.0352 77.8498C79.0972 77.9741 79.1963 78.0762 79.319 78.1421C79.4584 78.2135 79.6138 78.2484 79.7705 78.2437C80.0455 78.2437 80.2588 78.1605 80.4104 77.9943C80.5621 77.828 80.6375 77.593 80.6367 77.2894V76.3761C80.6367 76.0675 80.5613 75.828 80.4104 75.6575C80.2595 75.487 80.0462 75.4016 79.7705 75.4012C79.6142 75.3966 79.4592 75.4301 79.319 75.4988C79.1966 75.562 79.0973 75.6618 79.0352 75.7842C78.9664 75.9251 78.9327 76.0803 78.937 76.2368L78.8508 75.4246C78.9651 75.1937 79.1386 74.9968 79.354 74.8539C79.5587 74.7204 79.7986 74.6503 80.0433 74.6524C80.3142 74.6448 80.5816 74.7148 80.8137 74.8539C81.0336 74.9945 81.2042 75.1995 81.3019 75.4406C81.4208 75.736 81.4779 76.0524 81.4696 76.3704V77.2876C81.4777 77.6022 81.419 77.9149 81.2973 78.2054C81.1944 78.4466 81.0188 78.6502 80.7947 78.7882C80.5545 78.9274 80.2799 78.997 80.002 78.9891C79.7587 78.995 79.5191 78.9299 79.3127 78.8019Z" fill="#45BBD8"/>
<path id="Vector_13" d="M85.9574 78.9098C85.4627 78.8086 85.0016 78.5852 84.6167 78.2603L85.1337 77.6267C85.353 77.8176 85.6063 77.9663 85.8804 78.0651C86.1662 78.1658 86.4676 78.2161 86.7708 78.2135C87.2012 78.2135 87.535 78.1343 87.772 77.976C87.8851 77.9046 87.9774 77.805 88.0397 77.6871C88.1021 77.5693 88.1324 77.4373 88.1276 77.3042V77.3002C88.1276 77.0942 88.0736 76.9315 87.9662 76.8105C87.8529 76.6868 87.7092 76.5945 87.5491 76.5428C87.3334 76.4733 87.1128 76.4197 86.8891 76.3824C86.8806 76.3796 86.8717 76.3783 86.8627 76.3784C86.8536 76.3783 86.8445 76.377 86.8357 76.3744L86.7748 76.3619C86.4456 76.3115 86.121 76.2351 85.804 76.1336C85.5491 76.0443 85.3265 75.8818 85.1647 75.6667C84.9878 75.4406 84.8991 75.1193 84.8987 74.7026V74.6986C84.8987 74.333 84.9813 74.0209 85.1463 73.7626C85.3198 73.4967 85.5715 73.2904 85.8672 73.1718C86.1835 73.036 86.5636 72.9682 87.0075 72.9686C87.2185 72.9684 87.4289 72.9915 87.6347 73.0377C87.8442 73.085 88.0483 73.1536 88.2436 73.2426C88.4513 73.3372 88.6491 73.4519 88.8341 73.5851L88.3602 74.2432C88.1533 74.0887 87.9257 73.9637 87.6841 73.8716C87.4678 73.7905 87.2386 73.7486 87.0075 73.7477C86.6019 73.7477 86.2866 73.8282 86.0614 73.9892C85.8362 74.1501 85.7238 74.3784 85.7242 74.6741V74.6781C85.7242 74.8813 85.7816 75.0409 85.8965 75.157C86.0176 75.2768 86.1663 75.3653 86.3296 75.415C86.5667 75.4856 86.8075 75.5428 87.0511 75.5862C87.0611 75.589 87.0713 75.5911 87.0816 75.5925C87.0907 75.5925 87.1011 75.5959 87.112 75.5987L87.1568 75.6067L87.2022 75.6147C87.5101 75.6726 87.8117 75.7598 88.1029 75.875C88.3465 75.9769 88.5561 76.1451 88.7077 76.3602C88.8701 76.5835 88.9513 76.8879 88.9513 77.2734V77.2814C88.9607 77.6082 88.8709 77.9302 88.6934 78.2055C88.5097 78.4709 88.2493 78.6747 87.9466 78.7899C87.6207 78.9243 87.2278 78.9912 86.7679 78.9909C86.4956 78.992 86.224 78.9649 85.9574 78.9098Z" fill="#45BBD8"/>
<path id="Vector_14" d="M90.7388 78.7757C90.4782 78.6334 90.2688 78.4139 90.1396 78.1478C90.0022 77.8735 89.9334 77.5426 89.9334 77.1552V76.4703C89.9242 76.1319 89.9948 75.7961 90.1396 75.4897C90.2696 75.2259 90.479 75.0089 90.7388 74.8687C91.0333 74.7284 91.3558 74.6555 91.6825 74.6555C92.0092 74.6555 92.3317 74.7284 92.6263 74.8687C92.8861 75.0089 93.0955 75.2259 93.2254 75.4897C93.3702 75.7961 93.4409 76.1319 93.4317 76.4703V77.1689C93.4317 77.5536 93.3629 77.8818 93.2254 78.1535C93.0954 78.4179 92.8861 78.6356 92.6263 78.7768C92.3651 78.9207 92.0505 78.9924 91.6825 78.992C91.3145 78.9916 90.9999 78.9195 90.7388 78.7757ZM92.3586 77.9309C92.5183 77.7502 92.5982 77.4958 92.5982 77.1678V76.4692C92.5982 76.1419 92.5183 75.8889 92.3586 75.7101C92.1989 75.5312 91.9736 75.442 91.6825 75.4424C91.3907 75.4424 91.1654 75.5316 91.0064 75.7101C90.8475 75.8885 90.7677 76.1416 90.7669 76.4692V77.1678C90.7669 77.4954 90.8467 77.7498 91.0064 77.9309C91.1661 78.1121 91.3915 78.2028 91.6825 78.2032C91.9736 78.2032 92.1989 78.1124 92.3586 77.9309Z" fill="#45BBD8"/>
<path id="Vector_15" d="M95.4502 77.8419C95.4446 77.9264 95.4685 78.0103 95.518 78.0793C95.5408 78.107 95.5698 78.1289 95.6028 78.1434C95.6357 78.1579 95.6716 78.1645 95.7075 78.1626H96.0999V78.9503H95.6099C95.2932 78.9503 95.0487 78.8529 94.8763 78.6581C94.704 78.4632 94.6175 78.1885 94.6167 77.8339V73.0262H95.4502V77.8419Z" fill="#45BBD8"/>
<path id="Vector_16" d="M97.8333 77.2774C97.8333 77.5727 97.9099 77.801 98.0631 77.9623C98.2163 78.1237 98.4294 78.2042 98.7024 78.2038C98.9747 78.2038 99.1853 78.1321 99.3343 77.9886C99.4833 77.8451 99.5581 77.6408 99.5589 77.3756L99.6163 78.2569C99.5275 78.4677 99.3803 78.6492 99.1918 78.7803C98.9795 78.9257 98.7258 78.9997 98.4681 78.9914C98.0001 78.9914 97.6386 78.8419 97.3835 78.5428C97.1285 78.2437 97.001 77.8221 97.001 77.278V74.7158H97.835L97.8333 77.2774ZM99.5566 74.7152H100.385V78.9304H99.5577L99.5566 74.7152Z" fill="#45BBD8"/>
<path id="Vector_17" d="M101.327 74.7152H103.239V75.4623H101.327V74.7152ZM102.003 78.6683C101.844 78.4781 101.764 78.1999 101.764 77.8339V73.4891H102.598V77.8419C102.592 77.9255 102.614 78.0087 102.659 78.0793C102.68 78.1069 102.707 78.129 102.739 78.1436C102.77 78.1581 102.805 78.1647 102.839 78.1626H103.241V78.9503H102.759C102.414 78.9503 102.163 78.8569 102.003 78.67V78.6683Z" fill="#45BBD8"/>
<path id="Vector_18" d="M104.384 73.0262H105.217V73.8544H104.384V73.0262ZM104.384 74.7152H105.217V78.9303H104.384V74.7152Z" fill="#45BBD8"/>
<path id="Vector_19" d="M107.166 78.7757C106.906 78.6332 106.696 78.4138 106.567 78.1478C106.43 77.8735 106.361 77.5426 106.361 77.1553V76.4703C106.352 76.132 106.423 75.7961 106.567 75.4897C106.697 75.2261 106.906 75.0091 107.166 74.8687C107.461 74.7283 107.783 74.6554 108.11 74.6554C108.437 74.6554 108.759 74.7283 109.054 74.8687C109.314 75.0089 109.523 75.226 109.653 75.4897C109.79 75.7618 109.859 76.0887 109.859 76.4703V77.169C109.859 77.5537 109.79 77.8819 109.653 78.1535C109.523 78.4178 109.314 78.6356 109.054 78.7768C108.792 78.9207 108.478 78.9924 108.11 78.992C107.743 78.9916 107.428 78.9195 107.166 78.7757ZM108.786 77.9309C108.946 77.7502 109.026 77.4958 109.025 77.1678V76.4692C109.025 76.1419 108.946 75.8889 108.786 75.7101C108.627 75.5312 108.402 75.442 108.11 75.4424C107.818 75.4424 107.593 75.5316 107.434 75.7101C107.274 75.8885 107.195 76.1416 107.195 76.4692V77.1678C107.195 77.4954 107.274 77.7498 107.434 77.9309C107.593 78.1121 107.818 78.2028 108.11 78.2032C108.402 78.2032 108.627 78.1124 108.786 77.9309Z" fill="#45BBD8"/>
<path id="Vector_20" d="M111.045 74.7152H111.878V78.9303H111.045V74.7152ZM113.619 76.3761C113.619 76.0782 113.542 75.848 113.386 75.6855C113.231 75.523 113.013 75.442 112.733 75.4423C112.46 75.4423 112.25 75.5141 112.101 75.6575C111.952 75.801 111.877 76.0026 111.878 76.2625L111.792 75.4503C111.908 75.2125 112.085 75.0093 112.305 74.8613C112.513 74.7242 112.757 74.652 113.006 74.6541C113.466 74.6541 113.822 74.8036 114.074 75.1027C114.327 75.4018 114.453 75.8249 114.452 76.3721V78.9303H113.619V76.3761Z" fill="#45BBD8"/>
<path id="Vector_21" d="M116.515 78.9177C116.301 78.8713 116.094 78.7976 115.899 78.6986C115.708 78.6007 115.531 78.4779 115.373 78.3333L115.867 77.7282C116.075 77.8894 116.305 78.0206 116.55 78.1181C116.763 78.2022 116.99 78.2462 117.219 78.2476C117.549 78.2476 117.796 78.197 117.961 78.0958C118.04 78.0492 118.105 77.9821 118.149 77.9017C118.192 77.8212 118.213 77.7305 118.208 77.6392C118.213 77.5814 118.202 77.5235 118.179 77.4705C118.155 77.4175 118.119 77.371 118.074 77.335C117.975 77.2634 117.86 77.2166 117.739 77.1986C117.605 77.1757 117.417 77.1548 117.175 77.1358H117.105C117.08 77.1358 117.057 77.1324 117.036 77.1295C117.025 77.1304 117.014 77.1304 117.003 77.1295H116.97C116.734 77.1146 116.499 77.0744 116.272 77.0096C116.082 76.9525 115.916 76.8381 115.795 76.6826C115.668 76.5228 115.605 76.2945 115.605 75.9977C115.606 75.7009 115.667 75.4535 115.789 75.2557C115.918 75.0525 116.111 74.8964 116.337 74.811C116.579 74.7121 116.883 74.6626 117.248 74.6626C117.46 74.6618 117.672 74.6823 117.88 74.7237C118.077 74.7634 118.27 74.8241 118.454 74.9046C118.64 74.9865 118.817 75.0879 118.981 75.2071L118.478 75.8122C118.283 75.685 118.072 75.5826 117.851 75.5074C117.657 75.4417 117.454 75.4074 117.249 75.4058C116.965 75.4058 116.753 75.4539 116.611 75.5502C116.541 75.5979 116.485 75.6628 116.448 75.7385C116.41 75.8142 116.393 75.8981 116.398 75.9822C116.395 76.0316 116.405 76.081 116.426 76.1258C116.447 76.1706 116.479 76.2093 116.519 76.2385C116.61 76.2995 116.715 76.3386 116.824 76.3527C116.946 76.3715 117.121 76.3881 117.347 76.4012C117.364 76.404 117.381 76.4053 117.398 76.4052C117.417 76.4054 117.436 76.4067 117.455 76.4092H117.48C117.488 76.4093 117.496 76.4108 117.504 76.4137C117.76 76.4262 118.015 76.4656 118.262 76.5313C118.471 76.5908 118.655 76.7146 118.788 76.8846C118.929 77.0604 119 77.3148 119 77.6478C119 77.9514 118.935 78.202 118.804 78.4012C118.661 78.6101 118.453 78.7675 118.213 78.8498C117.95 78.9503 117.62 79.0003 117.222 78.9999C116.984 78.9988 116.747 78.9712 116.515 78.9177Z" fill="#45BBD8"/>
<path id="Vector_22" d="M118.384 69.8081H67.2651V70.6255H118.384V69.8081Z" fill="#45BBD8"/>
</g>
</g>
</svg>
