<svg width="30" height="31" viewBox="0 0 30 31" fill="none" xmlns="http://www.w3.org/2000/svg">
<g id="instagram">
<path d="M15 18.125C13.5938 18.125 12.375 17 12.375 15.5C12.375 14.0937 13.5 12.875 15 12.875C16.4062 12.875 17.625 14 17.625 15.5C17.625 16.9062 16.4062 18.125 15 18.125Z" fill="#FFFBFE"/>
<path fill-rule="evenodd" clip-rule="evenodd" d="M18.1875 9.125H11.8125C11.0625 9.21875 10.6875 9.3125 10.4062 9.40625C10.0313 9.5 9.75 9.6875 9.46875 9.96875C9.2462 10.1913 9.14105 10.4138 9.01396 10.6828C8.98046 10.7537 8.94535 10.8281 8.90625 10.9062C8.89175 10.9498 8.875 10.9955 8.85705 11.0445C8.75897 11.3125 8.625 11.6785 8.625 12.3125V18.6875C8.71875 19.4375 8.8125 19.8125 8.90625 20.0937C9 20.4687 9.1875 20.75 9.46875 21.0312C9.6913 21.2538 9.91385 21.3589 10.1829 21.486C10.2538 21.5196 10.328 21.5546 10.4062 21.5937C10.4498 21.6082 10.4955 21.625 10.5445 21.6429C10.8125 21.741 11.1785 21.875 11.8125 21.875H18.1875C18.9375 21.7812 19.3125 21.6875 19.5938 21.5937C19.9688 21.5 20.25 21.3125 20.5312 21.0312C20.7538 20.8087 20.8589 20.5861 20.986 20.3172C21.0196 20.2462 21.0546 20.172 21.0938 20.0937C21.1083 20.0502 21.125 20.0045 21.1429 19.9554C21.241 19.6875 21.375 19.3215 21.375 18.6875V12.3125C21.2812 11.5625 21.1875 11.1875 21.0938 10.9062C21 10.5312 20.8125 10.25 20.5312 9.96875C20.3087 9.7462 20.0861 9.64105 19.8172 9.51395C19.7463 9.48048 19.6719 9.44531 19.5938 9.40625C19.5502 9.39174 19.5045 9.375 19.4555 9.35705C19.1875 9.25897 18.8215 9.125 18.1875 9.125ZM15 11.4687C12.75 11.4687 10.9688 13.25 10.9688 15.5C10.9688 17.75 12.75 19.5312 15 19.5312C17.25 19.5312 19.0312 17.75 19.0312 15.5C19.0312 13.25 17.25 11.4687 15 11.4687ZM20.0625 11.375C20.0625 11.8928 19.6428 12.3125 19.125 12.3125C18.6072 12.3125 18.1875 11.8928 18.1875 11.375C18.1875 10.8572 18.6072 10.4375 19.125 10.4375C19.6428 10.4375 20.0625 10.8572 20.0625 11.375Z" fill="#FFFBFE"/>
<path fill-rule="evenodd" clip-rule="evenodd" d="M0 5.1875C0 2.59867 2.09867 0.5 4.6875 0.5H25.3125C27.9013 0.5 30 2.59867 30 5.1875V25.8125C30 28.4013 27.9013 30.5 25.3125 30.5H4.6875C2.09867 30.5 0 28.4013 0 25.8125V5.1875ZM11.8125 7.71875H18.1875C19.0312 7.8125 19.5938 7.90625 20.0625 8.09375C20.625 8.375 21 8.5625 21.4688 9.03125C21.9375 9.5 22.2188 9.96875 22.4063 10.4375C22.5938 10.9062 22.7812 11.4687 22.7812 12.3125V18.6875C22.6875 19.5312 22.5938 20.0937 22.4063 20.5625C22.125 21.125 21.9375 21.5 21.4688 21.9687C21 22.4375 20.5312 22.7187 20.0625 22.9062C19.5938 23.0937 19.0312 23.2812 18.1875 23.2812H11.8125C10.9688 23.1875 10.4062 23.0937 9.9375 22.9062C9.375 22.625 9 22.4375 8.53125 21.9687C8.0625 21.5 7.78125 21.0312 7.59375 20.5625C7.40625 20.0937 7.21875 19.5312 7.21875 18.6875V12.3125C7.3125 11.4687 7.40625 10.9062 7.59375 10.4375C7.875 9.875 8.0625 9.5 8.53125 9.03125C9 8.5625 9.46875 8.28125 9.9375 8.09375C10.4062 7.90625 10.9688 7.71875 11.8125 7.71875Z" fill="#FFFBFE"/>
</g>
</svg>
