<svg width="46" height="44" viewBox="0 0 46 44" fill="none" xmlns="http://www.w3.org/2000/svg">
<g id="Group 427319361">
<path id="Vector" d="M0 0.180664C5.57622 9.72278 11.1524 19.2649 16.7287 28.807C18.6844 27.8863 20.8346 27.4416 22.9997 27.5099V16.5579C21.9316 16.5897 20.3047 16.479 18.5576 15.6993C15.6346 14.3918 14.2699 12.0565 13.8388 11.2965C13.1986 10.1624 12.77 8.92374 12.5735 7.63965L0 0.180664Z" fill="#045C7D"/>
<path id="Vector_2" d="M46.0001 0.180664L29.2714 28.807C27.3156 27.8863 25.1653 27.4415 23.0001 27.5099V16.5579C24.0685 16.5897 25.6954 16.479 27.4425 15.6993C30.3656 14.3918 31.7322 12.0565 32.1616 11.2965C32.8017 10.1624 33.2303 8.9237 33.4269 7.63965L46.0001 0.180664Z" fill="#45BBD8"/>
<path id="Vector_3" d="M18.6663 33.5933L23.0003 44V32.6632C21.5094 32.7023 20.0393 33.0178 18.6663 33.5933Z" fill="#045C7D"/>
<path id="Vector_4" d="M27.3345 33.5933L23.0001 44V32.6632C24.4911 32.7023 25.9613 33.0178 27.3345 33.5933Z" fill="#45BBD8"/>
<path id="Vector_5" d="M28.9508 9.9078H26.6963C27.0062 9.0023 27.1834 8.05764 27.2226 7.10253H29.786C29.7204 8.08724 29.4348 9.04533 28.9495 9.9078H28.9508ZM22.9993 13.3125C22.0384 12.7474 21.2415 11.8714 20.6685 10.8004H25.3313C24.758 11.8717 23.9612 12.7477 23.0002 13.3125H22.9993ZM20.2613 9.9078C19.9194 9.00885 19.7239 8.062 19.6822 7.10253H26.319C26.2772 8.062 26.0818 9.00885 25.7399 9.9078H20.2613ZM16.2148 7.10253H18.7779C18.8172 8.05766 18.9945 9.00232 19.3045 9.9078H17.0497C16.5649 9.04526 16.2797 8.08714 16.2148 7.10253ZM17.0497 3.40467H19.3045C18.9945 4.31025 18.8171 5.25502 18.7779 6.21026H16.2148C16.2797 5.22554 16.5649 4.26732 17.0497 3.40467ZM23.0012 0C23.9621 0.56506 24.759 1.44111 25.3323 2.51209H20.6695C21.2425 1.44079 22.0393 0.564742 23.0002 0H23.0012ZM25.7402 3.40467C26.0822 4.30368 26.2777 5.25066 26.3193 6.21026H19.6815C19.7231 5.25066 19.9186 4.30368 20.2606 3.40467H25.7402ZM29.7869 6.21026H27.2226C27.1835 5.25504 27.0062 4.31027 26.6963 3.40467H28.9508C29.436 4.26725 29.7217 5.22544 29.7873 6.21026H29.7869ZM26.3341 2.5124C25.9056 1.59788 25.3349 0.786696 24.6496 0.135144C26.1165 0.499915 27.4189 1.33657 28.3518 2.51336L26.3341 2.5124ZM21.3512 0.135144C20.6656 0.78765 20.0949 1.59788 19.6658 2.51336H17.648C18.5813 1.33643 19.884 0.499767 21.3512 0.135144ZM19.6658 10.8001C20.0949 11.7162 20.6656 12.5258 21.3512 13.1783C19.884 12.8137 18.5813 11.977 17.648 10.8001H19.6658ZM24.6496 13.1783C25.3349 12.5258 25.9043 11.7155 26.3347 10.8001H28.3518C27.4189 11.9769 26.1165 12.8135 24.6496 13.1783Z" fill="#45BBD8"/>
</g>
</svg>
