<svg width="30" height="31" viewBox="0 0 30 31" fill="none" xmlns="http://www.w3.org/2000/svg">
<path fill-rule="evenodd" clip-rule="evenodd" d="M4.6875 0.5H25.3125C27.9013 0.5 30 2.59867 30 5.1875V25.8125C30 28.4013 27.9013 30.5 25.3125 30.5H4.6875C2.09867 30.5 0 28.4013 0 25.8125V5.1875C0 2.59867 2.09867 0.5 4.6875 0.5ZM15.6486 11.7569C14.3052 12.3157 11.6202 13.4722 7.59367 15.2265C6.93983 15.4865 6.59731 15.7409 6.56613 15.9896C6.51344 16.41 7.03982 16.5755 7.75663 16.8009C7.85413 16.8315 7.95516 16.8633 8.05873 16.897C8.76396 17.1262 9.71261 17.3944 10.2058 17.4051C10.6531 17.4147 11.1524 17.2303 11.7036 16.8518C15.4658 14.3123 17.4078 13.0287 17.5297 13.001C17.6157 12.9815 17.7349 12.9569 17.8157 13.0287C17.8964 13.1005 17.8885 13.2364 17.8799 13.2729C17.8278 13.4952 15.7615 15.4162 14.6922 16.4103C14.3589 16.7202 14.1224 16.94 14.0741 16.9902C13.9658 17.1027 13.8554 17.2091 13.7494 17.3113C13.0942 17.9429 12.6029 18.4166 13.7766 19.19C14.3406 19.5617 14.792 19.8691 15.2422 20.1757C15.734 20.5106 16.2244 20.8446 16.859 21.2605C17.0207 21.3665 17.1751 21.4766 17.3255 21.5838C17.8977 21.9918 18.4119 22.3583 19.047 22.2999C19.4161 22.2659 19.7974 21.9189 19.991 20.8838C20.4486 18.4376 21.348 13.1376 21.5558 10.9536C21.574 10.7622 21.5511 10.5173 21.5327 10.4098C21.5143 10.3023 21.4759 10.1492 21.3362 10.0358C21.1707 9.90149 20.9152 9.87317 20.8009 9.87509C20.2814 9.88434 19.4844 10.1615 15.6486 11.7569Z" fill="#FFFBFE"/>
</svg>
