<svg width="30" height="31" viewBox="0 0 30 31" fill="none" xmlns="http://www.w3.org/2000/svg">
<path d="M2.72727 0.5C1.22045 0.5 0 1.72045 0 3.22727V27.7727C0 29.2795 1.22045 30.5 2.72727 30.5H27.2727C28.7795 30.5 30 29.2795 30 27.7727V3.22727C30 1.72045 28.7795 0.5 27.2727 0.5H2.72727ZM6.33878 7.31818H12.627L16.2971 12.565L20.8381 7.31818H22.8169L17.1866 13.8381L24.074 23.6818H17.7859L13.7136 17.8597L8.68519 23.6818H6.67436L12.8187 16.584L6.33878 7.31818ZM9.38033 8.93217L18.5902 22.0598H21.0298L11.8173 8.93217H9.38033Z" fill="#FFFBFE"/>
</svg>
